<svg width="55" height="55" viewBox="0 0 55 55" fill="none" xmlns="http://www.w3.org/2000/svg">
<g filter="url(#filter0_d_14_14)">
<g filter="url(#filter1_d_14_14)">
<path d="M20.8615 17.0778L34.1728 12.7407C36.5358 11.9708 39.0755 13.2623 39.8454 15.6253L44.1825 28.9365C44.9524 31.2996 43.661 33.8393 41.298 34.6092L27.9867 38.9463C25.6237 39.7162 23.0839 38.4248 22.314 36.0617L17.9769 22.7505C17.207 20.3875 18.4985 17.8477 20.8615 17.0778Z" fill="black" stroke="#87CEEB"/>
<path d="M37.1261 13.8449L43.0122 31.9102L24.9469 37.7962L19.0608 19.7309L37.1261 13.8449Z" fill="#2A2A2A" stroke="#151515"/>
<path d="M34.2587 14.7241L40.1447 32.7894L26.8334 37.1265L20.9474 19.0612L34.2587 14.7241Z" fill="#2A2A2A" stroke="#151515"/>
<path d="M13.1938 19.6217L26.5051 15.2846C28.8681 14.5147 31.4078 15.8061 32.1777 18.1692L36.5148 31.4804C37.2848 33.8434 35.9933 36.3832 33.6303 37.1531L20.319 41.4902C17.956 42.2601 15.4162 40.9686 14.6463 38.6056L10.3092 25.2944C9.53933 22.9313 10.8308 20.3916 13.1938 19.6217Z" fill="black" stroke="#87CEEB"/>
<path d="M13.2143 29.5295L12.9004 29.6315L12.2144 27.5201L12.5282 27.4181L13.2143 29.5295ZM15.2455 28.8821L14.9031 28.9934L13.4719 27.6951L13.9901 29.29L13.682 29.3901L12.9904 27.2617L13.3185 27.1551L14.7723 28.4744L14.2458 26.8538L14.5539 26.7536L15.2455 28.8821ZM16.1698 26.5567L15.4537 26.7893L15.6447 27.3771L16.3209 27.1574L16.4163 27.4513L15.7401 27.671L16.0451 28.6097L15.7341 28.7107L15.0481 26.5994L16.0753 26.2656L16.1698 26.5567ZM17.3943 26.1083C17.1965 26.1726 17.0677 26.307 17.008 26.5114C16.9522 26.6957 16.9605 26.8991 17.0328 27.1216C17.1057 27.3461 17.2189 27.5165 17.3723 27.6327C17.5408 27.763 17.724 27.796 17.9218 27.7318C18.1197 27.6675 18.2484 27.5331 18.3082 27.3287C18.3621 27.145 18.3525 26.941 18.2796 26.7165C18.2079 26.4959 18.096 26.3262 17.9438 26.2074C17.7753 26.0771 17.5922 26.044 17.3943 26.1083ZM17.3007 25.8202C17.605 25.7213 17.8786 25.7575 18.1215 25.9288C18.3372 26.0816 18.4936 26.3105 18.5906 26.6155C18.695 26.9496 18.7023 27.2374 18.6125 27.479C18.515 27.742 18.316 27.9223 18.0155 28.0199C17.7168 28.117 17.4489 28.0884 17.2116 27.9342C16.992 27.7889 16.8287 27.5518 16.7218 27.2227C16.6217 26.9146 16.6133 26.6365 16.6968 26.3886C16.7913 26.1098 16.9926 25.9203 17.3007 25.8202ZM19.3162 26.1778L19.4617 26.1306C19.5873 26.0898 19.6788 26.0348 19.7362 25.9657C19.807 25.8859 19.8254 25.7937 19.7914 25.6891C19.7513 25.5654 19.6879 25.4966 19.6014 25.4827C19.542 25.4747 19.4333 25.4963 19.2755 25.5476L19.1271 25.5958L19.3162 26.1778ZM20.7799 27.0712L20.4518 27.1779L19.9119 26.5647C19.8385 26.4813 19.7807 26.4328 19.7385 26.4192C19.6861 26.4004 19.6143 26.4059 19.523 26.4356L19.4117 26.4717L19.7186 27.4161L19.4133 27.5153L18.7272 25.404L19.2865 25.2223C19.7049 25.0863 19.976 25.2085 20.0996 25.5889C20.1404 25.7145 20.1354 25.8318 20.0846 25.9408C20.0338 26.0498 19.9496 26.1371 19.8321 26.2026C19.9454 26.1889 20.0472 26.2337 20.1375 26.3368L20.7799 27.0712ZM23.3128 26.2609L23.0075 26.3601L22.4726 24.7138L22.3552 26.5562L22.1041 26.6378L20.9034 25.2237L21.4383 26.8699L21.1301 26.9701L20.4386 24.8416L20.8494 24.7081L22.0896 26.1757L22.2104 24.2659L22.6212 24.1324L23.3128 26.2609ZM24.76 24.8633L24.1293 24.0967L24.0667 25.0885L24.76 24.8633ZM25.6945 25.487L25.3635 25.5946L24.9696 25.1201L24.0452 25.4204L24.0026 26.0368L23.6745 26.1434L23.8502 23.7331L24.1612 23.632L25.6945 25.487ZM26.6746 23.134L26.0954 23.3222L26.6896 25.1511L26.3786 25.2521L25.7844 23.4232L25.208 23.6105L25.1163 23.328L26.5828 22.8515L26.6746 23.134ZM27.8535 24.7729L27.5396 24.8749L26.8536 22.7635L27.1675 22.6616L27.8535 24.7729ZM28.5785 22.4744C28.3807 22.5386 28.2519 22.673 28.1922 22.8775C28.1364 23.0617 28.1447 23.2651 28.217 23.4877C28.2899 23.7121 28.4031 23.8825 28.5565 23.9988C28.7251 24.1291 28.9082 24.1621 29.106 24.0978C29.3039 24.0335 29.4326 23.8992 29.4924 23.6947C29.5463 23.5111 29.5367 23.307 29.4638 23.0826C29.3921 22.8619 29.2802 22.6922 29.128 22.5734C28.9595 22.4431 28.7764 22.4101 28.5785 22.4744ZM28.4849 22.1862C28.7893 22.0873 29.0628 22.1235 29.3057 22.2949C29.5214 22.4477 29.6778 22.6766 29.7748 22.9815C29.8792 23.3156 29.8865 23.6034 29.7967 23.845C29.6992 24.108 29.5002 24.2883 29.1997 24.386C28.901 24.483 28.6331 24.4544 28.3958 24.3002C28.1762 24.1549 28.0129 23.9178 27.906 23.5887C27.8059 23.2806 27.7975 23.0025 27.881 22.7546C27.9755 22.4758 28.1768 22.2863 28.4849 22.1862ZM32.1305 23.3958L31.7881 23.5071L30.3569 22.2088L30.8751 23.8038L30.5669 23.9039L29.8754 21.7754L30.2035 21.6688L31.6573 22.9881L31.1308 21.3675L31.4389 21.2674L32.1305 23.3958Z" fill="white"/>
</g>
</g>
<defs>
<filter id="filter0_d_14_14" x="5.58651" y="12.018" width="43.3187" height="38.1949" filterUnits="userSpaceOnUse" color-interpolation-filters="sRGB">
<feFlood flood-opacity="0" result="BackgroundImageFix"/>
<feColorMatrix in="SourceAlpha" type="matrix" values="0 0 0 0 0 0 0 0 0 0 0 0 0 0 0 0 0 0 127 0" result="hardAlpha"/>
<feOffset dy="4"/>
<feGaussianBlur stdDeviation="2"/>
<feComposite in2="hardAlpha" operator="out"/>
<feColorMatrix type="matrix" values="0 0 0 0 0 0 0 0 0 0 0 0 0 0 0 0 0 0 0.25 0"/>
<feBlend mode="normal" in2="BackgroundImageFix" result="effect1_dropShadow_14_14"/>
<feBlend mode="normal" in="SourceGraphic" in2="effect1_dropShadow_14_14" result="shape"/>
</filter>
<filter id="filter1_d_14_14" x="5.58651" y="12.018" width="43.3187" height="38.1949" filterUnits="userSpaceOnUse" color-interpolation-filters="sRGB">
<feFlood flood-opacity="0" result="BackgroundImageFix"/>
<feColorMatrix in="SourceAlpha" type="matrix" values="0 0 0 0 0 0 0 0 0 0 0 0 0 0 0 0 0 0 127 0" result="hardAlpha"/>
<feOffset dy="4"/>
<feGaussianBlur stdDeviation="2"/>
<feComposite in2="hardAlpha" operator="out"/>
<feColorMatrix type="matrix" values="0 0 0 0 0 0 0 0 0 0 0 0 0 0 0 0 0 0 0.25 0"/>
<feBlend mode="normal" in2="BackgroundImageFix" result="effect1_dropShadow_14_14"/>
<feBlend mode="normal" in="SourceGraphic" in2="effect1_dropShadow_14_14" result="shape"/>
</filter>
</defs>
</svg>
